<?xml version="1.0" encoding="UTF-8" standalone="no"?>
<!DOCTYPE svg PUBLIC "-//W3C//DTD SVG 1.1//EN"
 "http://www.w3.org/Graphics/SVG/1.1/DTD/svg11.dtd">
<!-- Generated by graphviz version 2.49.2 (20211016.1639)
 -->
<!-- Title: BST Pages: 1 -->
<svg width="327pt" height="260pt"
 viewBox="0.00 0.00 327.19 260.00" xmlns="http://www.w3.org/2000/svg" xmlns:xlink="http://www.w3.org/1999/xlink">
<g id="graph0" class="graph" transform="scale(1 1) rotate(0) translate(4 256)">
<title>BST</title>
<polygon fill="white" stroke="transparent" points="-4,4 -4,-256 323.19,-256 323.19,4 -4,4"/>
<!-- l1 -->
<g id="node1" class="node">
<title>l1</title>
<ellipse fill="none" stroke="black" cx="177.6" cy="-234" rx="27" ry="18"/>
<text text-anchor="middle" x="177.6" y="-230.3" font-family="Arial" font-size="14.00">1</text>
</g>
<!-- l21 -->
<g id="node2" class="node">
<title>l21</title>
<ellipse fill="none" stroke="black" cx="140.6" cy="-162" rx="27" ry="18"/>
<text text-anchor="middle" x="140.6" y="-158.3" font-family="Arial" font-size="14.00">0.4</text>
</g>
<!-- l1&#45;&gt;l21 -->
<g id="edge1" class="edge">
<title>l1&#45;&gt;l21</title>
<path fill="none" stroke="black" d="M169.02,-216.76C164.53,-208.28 158.95,-197.71 153.92,-188.2"/>
<polygon fill="black" stroke="black" points="156.9,-186.35 149.13,-179.15 150.71,-189.62 156.9,-186.35"/>
</g>
<!-- l22 -->
<g id="node3" class="node">
<title>l22</title>
<ellipse fill="none" stroke="black" cx="215.6" cy="-162" rx="27" ry="18"/>
<text text-anchor="middle" x="215.6" y="-158.3" font-family="Arial" font-size="14.00">0.6</text>
</g>
<!-- l1&#45;&gt;l22 -->
<g id="edge2" class="edge">
<title>l1&#45;&gt;l22</title>
<path fill="none" stroke="black" d="M186.41,-216.76C191.02,-208.28 196.75,-197.71 201.92,-188.2"/>
<polygon fill="black" stroke="black" points="205.14,-189.61 206.83,-179.15 198.98,-186.27 205.14,-189.61"/>
</g>
<!-- l31 -->
<g id="node4" class="node">
<title>l31</title>
<ellipse fill="none" stroke="black" cx="65.6" cy="-90" rx="28.7" ry="18"/>
<text text-anchor="middle" x="65.6" y="-86.3" font-family="Arial" font-size="14.00">0.21</text>
</g>
<!-- l21&#45;&gt;l31 -->
<g id="edge3" class="edge">
<title>l21&#45;&gt;l31</title>
<path fill="none" stroke="black" d="M125.42,-146.83C114.82,-136.94 100.47,-123.55 88.48,-112.36"/>
<polygon fill="black" stroke="black" points="90.71,-109.65 81.01,-105.38 85.93,-114.77 90.71,-109.65"/>
</g>
<!-- l32 -->
<g id="node5" class="node">
<title>l32</title>
<ellipse fill="none" stroke="black" cx="140.6" cy="-90" rx="28.7" ry="18"/>
<text text-anchor="middle" x="140.6" y="-86.3" font-family="Arial" font-size="14.00">0.19</text>
</g>
<!-- l21&#45;&gt;l32 -->
<g id="edge4" class="edge">
<title>l21&#45;&gt;l32</title>
<path fill="none" stroke="black" d="M140.6,-143.7C140.6,-135.98 140.6,-126.71 140.6,-118.11"/>
<polygon fill="black" stroke="black" points="144.1,-118.1 140.6,-108.1 137.1,-118.1 144.1,-118.1"/>
</g>
<!-- l33 -->
<g id="node6" class="node">
<title>l33</title>
<ellipse fill="none" stroke="black" cx="215.6" cy="-90" rx="28.7" ry="18"/>
<text text-anchor="middle" x="215.6" y="-86.3" font-family="Arial" font-size="14.00">0.21</text>
</g>
<!-- l22&#45;&gt;l33 -->
<g id="edge5" class="edge">
<title>l22&#45;&gt;l33</title>
<path fill="none" stroke="black" d="M215.6,-143.7C215.6,-135.98 215.6,-126.71 215.6,-118.11"/>
<polygon fill="black" stroke="black" points="219.1,-118.1 215.6,-108.1 212.1,-118.1 219.1,-118.1"/>
</g>
<!-- l34 -->
<g id="node7" class="node">
<title>l34</title>
<ellipse fill="none" stroke="black" cx="290.6" cy="-90" rx="28.7" ry="18"/>
<text text-anchor="middle" x="290.6" y="-86.3" font-family="Arial" font-size="14.00">0.39</text>
</g>
<!-- l22&#45;&gt;l34 -->
<g id="edge6" class="edge">
<title>l22&#45;&gt;l34</title>
<path fill="none" stroke="black" d="M230.77,-146.83C241.38,-136.94 255.73,-123.55 267.71,-112.36"/>
<polygon fill="black" stroke="black" points="270.26,-114.77 275.19,-105.38 265.49,-109.65 270.26,-114.77"/>
</g>
<!-- l41 -->
<g id="node8" class="node">
<title>l41</title>
<ellipse fill="none" stroke="black" cx="28.6" cy="-18" rx="28.7" ry="18"/>
<text text-anchor="middle" x="28.6" y="-14.3" font-family="Arial" font-size="14.00">0.09</text>
</g>
<!-- l31&#45;&gt;l41 -->
<g id="edge7" class="edge">
<title>l31&#45;&gt;l41</title>
<path fill="none" stroke="black" d="M57.02,-72.76C52.6,-64.4 47.11,-54.02 42.13,-44.61"/>
<polygon fill="black" stroke="black" points="45.16,-42.84 37.39,-35.63 38.97,-46.11 45.16,-42.84"/>
</g>
<!-- l42 -->
<g id="node9" class="node">
<title>l42</title>
<ellipse fill="none" stroke="black" cx="103.6" cy="-18" rx="28.7" ry="18"/>
<text text-anchor="middle" x="103.6" y="-14.3" font-family="Arial" font-size="14.00">0.12</text>
</g>
<!-- l31&#45;&gt;l42 -->
<g id="edge8" class="edge">
<title>l31&#45;&gt;l42</title>
<path fill="none" stroke="black" d="M74.41,-72.76C79.02,-64.28 84.75,-53.71 89.92,-44.2"/>
<polygon fill="black" stroke="black" points="93.14,-45.61 94.83,-35.15 86.98,-42.27 93.14,-45.61"/>
</g>
</g>
</svg>
